PathFileType  4	(X/Y/Z) C:\Users\antoi\Documents\MyRepositories\mobilecap\ResultsAnalysis
DataRate	CameraRate	NumFrames	NumMarkers	Units	OrigDataRate	OrigDataStartFrame	OrigNumFrames
100.0	100.0	4	51	mm	100.0	104	275
Frame#	Time	r_knee			r_shank_antsup			r_ankle			r_calc			r_5meta			r_toe			L_knee			L_shank_antsup			L_ankle			L_calc			L_5meta			L_toe			r_sh2			r_sh3			r_sh4			L_sh2			L_sh3			r_thigh1			r_thigh2			r_thigh3			r_thigh4			r_thigh5			L_thigh1			L_thigh2			L_thigh3			L_thigh4			r.ASIS			r.PSIS			L.ASIS			L.PSIS			C7			R_Shoulder			L_Shoulder			R_Sternum			L_Sternum			R_humerus			R_elbow_med			R_elbow_lat			R_forearm			R_wrist_radius			R_wrist_ulna			L_humerus			L_elbow_med			L_elbow_lat			L_forearm			L_wrist_radius			L_wrist_ulna			R_HJC			L_HJC			R_HJC_reg			L_HJC_reg			
		X1	Y1	Z1	X2	Y2	Z2	X3	Y3	Z3	X4	Y4	Z4	X5	Y5	Z5	X6	Y6	Z6	X7	Y7	Z7	X8	Y8	Z8	X9	Y9	Z9	X10	Y10	Z10	X11	Y11	Z11	X12	Y12	Z12	X13	Y13	Z13	X14	Y14	Z14	X15	Y15	Z15	X16	Y16	Z16	X17	Y17	Z17	X18	Y18	Z18	X19	Y19	Z19	X20	Y20	Z20	X21	Y21	Z21	X22	Y22	Z22	X23	Y23	Z23	X24	Y24	Z24	X25	Y25	Z25	X26	Y26	Z26	X27	Y27	Z27	X28	Y28	Z28	X29	Y29	Z29	X30	Y30	Z30	X31	Y31	Z31	X32	Y32	Z32	X33	Y33	Z33	X34	Y34	Z34	X35	Y35	Z35	X36	Y36	Z36	X37	Y37	Z37	X38	Y38	Z38	X39	Y39	Z39	X40	Y40	Z40	X41	Y41	Z41	X42	Y42	Z42	X43	Y43	Z43	X44	Y44	Z44	X45	Y45	Z45	X46	Y46	Z46	X47	Y47	Z47	X48	Y48	Z48	X49	Y49	Z49	X50	Y50	Z50	X51	Y51	Z51	

104	1.03000000	-971.06915	734.96973	-423.03011	-991.38062	619.81048	-439.56905	-1211.34291	432.67308	-455.65191	-1274.19064	413.56306	-503.47346	-1127.18010	350.14058	-417.64349	-1085.65985	355.42414	-461.09390	-942.32912	731.76141	-723.19060	-961.55266	620.42558	-678.66530	-1200.31610	443.87335	-723.48624	-1264.17906	427.85029	-678.97135	-1116.84537	351.70810	-743.29685	-1074.43035	353.93993	-688.64539	-1063.39015	533.37686	-451.80449	-1037.99473	647.47419	-387.14264	-1121.46265	574.72595	-408.94496	-983.29704	666.90334	-752.76627	-1064.69148	575.22071	-766.11884	-850.00776	1026.77721	-423.46300	-856.90415	918.00868	-418.77276	-905.30046	895.74398	-378.86225	-954.74744	1031.01756	-380.65551	-957.72126	915.83723	-378.27181	-858.54614	1015.74952	-740.96082	-849.65327	879.85348	-736.33088	-963.99189	1018.61729	-775.76604	-958.16480	877.56664	-760.41250	-811.88564	1177.37389	-456.10936	-976.21547	1272.05047	-521.30309	-813.51082	1183.36020	-701.92746	-981.68233	1273.68878	-638.81343	-892.99091	1707.94776	-569.00025	-830.27470	1677.88627	-420.71566	-835.19397	1687.02375	-723.19490	-768.92879	1649.60397	-553.33379	-767.52917	1647.05887	-594.71666	-801.26492	1560.20266	-351.12854	-843.71659	1351.78620	-371.01613	-814.27847	1370.08909	-303.16802	-711.86264	1292.12220	-296.69702	-635.14088	1222.73491	-308.60379	-653.54070	1203.71730	-281.69537	-798.29141	1552.01178	-800.88237	-828.50436	1347.07272	-781.44897	-814.25622	1371.09569	-853.93599	-727.50186	1313.63379	-867.08773	-637.76538	1221.60975	-853.56882	-653.10308	1205.93660	-877.66358	-918.62096	1134.78900	-482.84593	-916.52170	1133.72728	-672.20905	-899.10528	1133.85982	-487.09682	-906.64682	1136.11994	-649.19747	
105	1.04000000	-964.38160	743.99750	-420.54403	-985.31661	629.04267	-436.50072	-1205.28328	440.85291	-453.54004	-1267.77537	424.86954	-502.34652	-1125.17997	351.13885	-416.83217	-1083.22765	354.59146	-459.96955	-937.24658	739.70605	-725.87889	-956.07290	628.93243	-681.94245	-1194.85155	450.69013	-725.15645	-1256.85709	438.15007	-680.50198	-1115.09038	352.56956	-743.54713	-1072.73360	353.66054	-688.75909	-1056.85859	542.34032	-448.08950	-1032.36267	657.07958	-384.71776	-1115.53751	584.06730	-406.90143	-978.49648	675.43886	-755.87522	-1059.55151	583.39157	-768.87058	-837.44941	1033.64972	-423.17938	-846.34045	924.41187	-419.01371	-895.17160	903.93630	-378.00761	-942.21261	1039.96025	-380.57644	-947.33823	924.90120	-377.43522	-846.00259	1022.37098	-741.84199	-840.48857	886.20768	-738.01365	-950.56256	1027.97444	-777.65195	-948.74049	886.62218	-763.30509	-797.91707	1185.52425	-456.86178	-963.22641	1278.62886	-522.65075	-798.72422	1191.52583	-702.49831	-968.35199	1280.14561	-640.19532	-887.56994	1715.46185	-569.25009	-824.99403	1687.06933	-421.19817	-829.71163	1696.47057	-722.90572	-762.65499	1658.41499	-553.63479	-761.35549	1656.01277	-594.80097	-793.90518	1570.14958	-351.30066	-833.62906	1361.05158	-370.25981	-803.79595	1380.11031	-302.79158	-700.04144	1304.01103	-297.23635	-622.26370	1235.82330	-309.56605	-639.92023	1216.48804	-282.40212	-790.53170	1562.61381	-801.47074	-818.28472	1357.27402	-783.16509	-803.58427	1381.84412	-855.34360	-716.23689	1325.42928	-868.24694	-625.65342	1234.05745	-854.84491	-640.71577	1218.65380	-879.33366	-904.23761	1141.90163	-483.93044	-901.41326	1140.83801	-673.28374	-884.56817	1141.28210	-488.05186	-891.63231	1143.37234	-650.05397	
106	1.05000000	-956.24616	753.36609	-418.06756	-977.87714	638.60185	-433.30201	-1197.96482	450.36334	-450.53901	-1259.59136	436.96936	-500.96542	-1122.63090	352.51771	-415.86446	-1080.74096	354.08830	-459.25648	-930.54551	748.48983	-728.86491	-949.04944	638.13247	-686.15000	-1188.02753	458.58034	-726.92435	-1248.78800	449.32279	-681.31777	-1112.82090	353.68472	-743.89924	-1070.82331	353.56569	-688.94897	-1049.05358	551.75628	-444.32235	-1025.51269	667.25134	-382.38568	-1108.35702	594.18102	-404.60500	-972.55631	684.95657	-759.32060	-1053.40614	592.77927	-771.97267	-824.64416	1041.22624	-422.62056	-835.13591	931.79853	-418.34276	-884.33538	912.61218	-376.84496	-929.56257	1049.11214	-380.62109	-936.37856	934.30894	-376.48502	-833.25064	1029.84543	-743.31481	-830.24415	893.50829	-740.30355	-937.33572	1037.65778	-780.22331	-938.33128	896.03347	-766.38045	-784.06160	1194.28524	-457.48152	-950.30475	1285.61475	-524.06892	-784.32031	1200.12246	-703.11186	-955.00899	1287.11002	-641.55811	-881.65906	1723.29528	-569.66856	-819.40634	1696.53823	-421.78186	-823.71235	1706.01995	-722.68484	-756.23275	1667.39069	-553.68806	-754.92525	1665.06973	-594.98639	-786.29026	1580.34643	-351.64534	-823.59335	1370.69000	-369.73083	-793.37998	1390.39019	-302.62044	-688.60291	1315.74505	-297.94282	-610.07456	1248.53788	-310.58655	-627.20994	1229.15735	-283.26367	-782.35035	1573.38777	-801.87804	-808.16941	1367.64884	-784.78347	-792.81399	1392.89765	-856.64433	-705.17024	1337.16340	-869.28572	-614.10683	1246.10103	-856.15673	-628.89112	1231.04409	-881.10516	-889.97346	1149.58106	-484.93177	-886.50410	1148.39523	-674.27390	-870.25196	1148.97451	-489.00596	-876.73884	1151.03640	-651.02452	
107	1.06000000	-946.93152	762.89796	-415.62729	-969.21493	648.19745	-430.03881	-1189.21451	460.41001	-447.22861	-1249.40925	449.92101	-499.24610	-1119.48641	354.28491	-414.91762	-1078.15103	354.04760	-458.93079	-922.25222	758.15455	-732.55577	-940.39213	647.65720	-690.87047	-1179.59614	467.29350	-728.74971	-1238.86588	461.07982	-682.15584	-1109.96127	355.19691	-744.40792	-1068.56642	353.71532	-689.21031	-1040.06732	561.40749	-440.78298	-1017.68146	677.69369	-380.15577	-1099.91483	604.20353	-402.88038	-965.25744	695.18026	-763.08960	-1045.99169	602.85942	-775.09011	-811.75262	1049.28094	-422.09214	-823.39611	940.16634	-416.58137	-872.98046	921.57624	-375.39080	-916.93133	1058.44826	-380.79113	-924.96851	943.73267	-375.67913	-820.41827	1038.14084	-745.35078	-819.10312	901.69048	-743.02456	-924.35612	1047.32345	-782.69954	-927.11814	905.62331	-769.48202	-770.48923	1203.57991	-457.94257	-937.43387	1292.98243	-525.34207	-770.55323	1209.21232	-703.72977	-941.77482	1294.61270	-642.69741	-875.35959	1731.44160	-570.04482	-813.54227	1706.14932	-422.41025	-817.23150	1715.81108	-722.38338	-749.52790	1676.40712	-553.51891	-748.14518	1674.00629	-595.15132	-778.52183	1590.83536	-352.08535	-813.83730	1380.44844	-369.32617	-783.05412	1400.92283	-302.70772	-677.61591	1327.23745	-298.75609	-598.64972	1260.75689	-311.71713	-615.38843	1241.48814	-284.04821	-773.74529	1584.30958	-802.03143	-798.05615	1378.19326	-786.17447	-782.07500	1404.12181	-857.66980	-694.29554	1348.77834	-870.15866	-603.21087	1257.69394	-857.40006	-617.72511	1242.99314	-882.82912	-875.94313	1157.77340	-485.77354	-872.02254	1156.45808	-675.10635	-856.26694	1156.94081	-489.85236	-862.26425	1159.19347	-651.98778	
